<svg width="20" height="19" viewBox="0 0 20 19" fill="none" xmlns="http://www.w3.org/2000/svg">
<path d="M18.7083 0H1.29167C0.854441 0 0.5 0.354441 0.5 0.791667V18.2083C0.5 18.6456 0.854441 19 1.29167 19H10.6485V11.6422H8.17244V8.77473H10.6485V6.66005C10.6485 4.20597 12.1474 2.86968 14.3366 2.86968C15.3852 2.86968 16.2865 2.94776 16.5491 2.98265V5.5473L15.0308 5.54799C13.8402 5.54799 13.6097 6.11375 13.6097 6.94397V8.77473H16.4492L16.0794 11.6422H13.6097V19H18.7083C19.1456 19 19.5 18.6456 19.5 18.2083V0.791667C19.5 0.354441 19.1456 0 18.7083 0Z" fill="#EB3C75"/>
</svg>
