<svg width="20" height="19" viewBox="0 0 20 19" fill="none" xmlns="http://www.w3.org/2000/svg">
<path d="M10.3896 0.610974C11.3616 0.59613 12.3264 0.603849 13.2907 0.59613C13.3227 1.80204 13.812 2.88741 14.5904 3.69135L14.5892 3.69016C15.427 4.44482 16.5171 4.93407 17.7189 5.01719L17.7355 5.01838V8.00851C16.6002 7.98001 15.5327 7.71816 14.5702 7.2681L14.6189 7.28829C14.1534 7.06444 13.7597 6.83466 13.3857 6.57816L13.4165 6.59835C13.4094 8.76494 13.4237 10.9315 13.4017 13.0904C13.3405 14.1906 12.9748 15.1941 12.3882 16.0318L12.4 16.0134C11.4192 17.4183 9.8303 18.3403 8.02352 18.395H8.0152C7.94217 18.3985 7.85608 18.4003 7.76939 18.4003C6.7422 18.4003 5.78211 18.1141 4.96392 17.6172L4.98767 17.6308C3.49855 16.7348 2.47136 15.2018 2.28136 13.4188L2.27899 13.3944C2.26414 13.0233 2.25702 12.6522 2.27186 12.2888C2.5628 9.45132 4.94017 7.25622 7.82995 7.25622C8.15474 7.25622 8.47299 7.28413 8.78233 7.33697L8.74908 7.33222C8.76392 8.43007 8.71939 9.52851 8.71939 10.6263C8.46824 10.5355 8.17849 10.4827 7.87627 10.4827C6.76714 10.4827 5.82367 11.1916 5.47455 12.1814L5.4692 12.1992C5.39024 12.4527 5.34452 12.7443 5.34452 13.0459C5.34452 13.1682 5.35224 13.2893 5.36649 13.4081L5.3653 13.3938C5.56242 14.6086 6.60386 15.5254 7.85964 15.5254C7.89586 15.5254 7.93149 15.5248 7.96711 15.523H7.96177C8.83042 15.4969 9.58449 15.0296 10.0108 14.3391L10.0167 14.3284C10.1753 14.1075 10.2839 13.8403 10.3201 13.55L10.3207 13.5417C10.395 12.2134 10.3653 10.8929 10.3724 9.56472C10.3795 6.5746 10.3653 3.5916 10.3872 0.609193L10.3896 0.610974Z" fill="#EB3C75"/>
</svg>
